<mxfile host="app.diagrams.net" modified="2023-07-10T14:32:37.731Z" agent="Mozilla/5.0 (Windows NT 10.0; Win64; x64) AppleWebKit/537.36 (KHTML, like Gecko) Chrome/109.0.0.0 Safari/537.36" version="21.6.1" etag="Q_bTKc4roYYc-tdiStm3" type="github">
  <diagram name="Page-1" id="dGkjUxeDVunZY1HyEMH1">
    <mxGraphModel>
      <root>
        <mxCell id="0" />
        <mxCell id="1" parent="0" />
      </root>
    </mxGraphModel>
  </diagram>
</mxfile>
